#!OML:ASF H:\Terrain\Patient Classification 1\Walking\steve\steve.ASF
:FULLY-SPECIFIED
:DEGREES
454
root 8.49235 16.3948 25.5785 7.26138 0.818449 2.26914
lowerback 0.190691 -0.384691 -0.407461
upperback -2.08299 -0.486892 1.68184
thorax -2.22443 -0.218576 1.96456
lowerneck -11.4093 -0.683182 -3.69772
upperneck 19.2025 -0.20234 -0.0339731
head 7.81538 -0.365699 0.584421
rclavicle 1.08338e-014 2.94201e-014
rhumerus -60.3829 -37.9348 -45.081
rradius 14.1038
rwrist 37.0794
rhand -16.3886 -35.3312
rfingers 7.12502
rthumb 9.82525 -65.082
lclavicle 1.08338e-014 2.94201e-014
lhumerus -16.5385 -4.4731 89.1091
lradius 36.442
lwrist 20.3761
lhand -24.5943 -15.7437
lfingers 7.12502
lthumb 1.90339 14.2276
rfemur -39.2619 3.87399 21.4772
rtibia 41.9613
rfoot -9.96303 5.97564
rtoes 4.18783
lfemur 5.19047 0.70796 -24.9971
ltibia 38.4429
lfoot 8.88932 0.717868
ltoes -6.58251
455
root 8.48221 16.4305 25.7381 7.39233 0.989859 2.20739
lowerback 0.237419 -0.369269 -0.385863
upperback -2.23322 -0.462309 1.758
thorax -2.40589 -0.203889 2.03183
lowerneck -11.3108 -0.502666 -3.3776
upperneck 19.4094 0.0291306 -0.2621
head 7.8613 -0.256554 0.47963
rclavicle 1.58531e-014 -3.18055e-015
rhumerus -59.4798 -38.585 -45.2883
rradius 13.7763
rwrist 37.9192
rhand -16.1633 -35.4049
rfingers 7.12502
rthumb 10.0426 -65.1453
lclavicle 1.58531e-014 -3.18055e-015
lhumerus -17.3232 -4.15516 89.4417
lradius 35.5671
lwrist 19.9136
lhand -24.2722 -15.5166
lfingers 7.12502
lthumb 2.21443 14.4517
rfemur -38.6091 3.58269 21.6988
rtibia 41.792
rfoot -10.3634 6.23053
rtoes 4.6828
lfemur 3.52634 0.852394 -24.6865
ltibia 41.3206
lfoot 10.0414 1.73316
ltoes -5.32542
456
root 8.483 16.4654 25.9085 6.92717 0.58798 1.86096
lowerback 0.792064 -0.111618 0.0452691
upperback -2.23987 -0.105268 1.76831
thorax -2.73927 -0.0325662 1.79424
lowerneck -10.7509 -0.475416 -2.60691
upperneck 19.1497 0.0423602 -0.996094
head 7.67396 -0.259261 0.111788
rclavicle 1.46604e-014 3.97569e-015
rhumerus -58.1299 -38.3017 -46.9747
rradius 13.9462
rwrist 37.2695
rhand -16.1461 -34.0863
rfingers 7.12502
rthumb 10.0592 -63.8259
lclavicle 1.46604e-014 3.97569e-015
lhumerus -18.2544 -4.22515 89.6806
lradius 34.717
lwrist 19.483
lhand -24.1667 -15.2711
lfingers 7.12502
lthumb 2.31634 14.696
rfemur -37.2766 3.71227 22.2468
rtibia 41.5957
rfoot -10.9283 6.43669
rtoes 2.24431
lfemur 2.69275 1.60815 -24.1489
ltibia 43.9786
lfoot 10.1472 2.60436
ltoes -6.09119
457
root 8.47975 16.4952 26.0636 6.91204 0.571993 1.66751
lowerback 0.946506 0.0552409 0.278914
upperback -2.3056 0.126991 1.80643
thorax -2.9009 0.079524 1.69529
lowerneck -10.6754 -0.658475 -2.92404
upperneck 19.315 -0.211696 -0.689391
head 7.71812 -0.375772 0.240662
rclavicle 9.93923e-017 -8.74653e-015
rhumerus -56.7046 -38.1155 -48.6549
rradius 14.248
rwrist 36.593
rhand -16.3942 -31.7438
rfingers 7.12502
rthumb 9.81982 -61.4949
lclavicle 9.93923e-017 -8.74653e-015
lhumerus -18.9496 -4.24389 90.0623
lradius 33.674
lwrist 18.7466
lhand -24.3248 -15.5843
lfingers 7.12502
lthumb 2.16365 14.3845
rfemur -36.5596 3.55581 22.5985
rtibia 41.3666
rfoot -11.3612 6.51381
rtoes 0.109536
lfemur 1.27145 2.09492 -23.7457
ltibia 46.5928
lfoot 9.83996 3.05262
ltoes -8.4115
458
root 8.47286 16.5146 26.2194 6.89191 0.490062 1.32675
lowerback 1.16172 0.279044 0.695259
upperback -2.43307 0.443978 1.85344
thorax -3.16 0.229333 1.4984
lowerneck -10.6364 -0.908871 -3.65274
upperneck 19.5465 -0.577672 0.0957182
head 7.79692 -0.531115 0.584776
rclavicle 5.96354e-016 -1.27222e-014
rhumerus -55.0611 -37.6005 -50.6814
rradius 14.4839
rwrist 35.2946
rhand -16.1799 -32.0604
rfingers 7.12502
rthumb 10.0266 -61.8016
lclavicle 5.96354e-016 -1.27222e-014
lhumerus -19.6694 -4.24045 90.4118
lradius 32.5486
lwrist 17.9057
lhand -24.4622 -15.773
lfingers 7.12502
lthumb 2.03095 14.1971
rfemur -35.7866 3.46874 23.109
rtibia 41.1171
rfoot -11.7094 6.85459
rtoes 0.97006
lfemur -0.232316 2.71201 -23.2009
ltibia 49.1289
lfoot 9.21289 3.28752
ltoes -10.3571
459
root 8.45962 16.5366 26.3624 6.93889 0.345431 1.04289
lowerback -0.485405 0.410807 0.974605
upperback -1.07843 0.560748 1.82529
thorax -0.840886 0.280903 1.32124
lowerneck -11.7213 -0.915608 -3.04125
upperneck 18.5503 -0.588713 -0.3082
head 7.65889 -0.520258 0.345528
rclavicle 9.44227e-016 -1.59028e-015
rhumerus -51.2093 -39.1707 -53.543
rradius 14.3763
rwrist 35.4075
rhand -15.7617 -33.5543
rfingers 7.12502
rthumb 10.43 -63.2756
lclavicle 9.44227e-016 -1.59028e-015
lhumerus -17.8788 -4.07684 90.1647
lradius 31.3504
lwrist 17.1663
lhand -24.3496 -15.7536
lfingers 7.12502
lthumb 2.13968 14.2154
rfemur -35.0986 3.52083 23.5573
rtibia 40.8703
rfoot -12.1394 7.0209
rtoes 0.880278
lfemur -1.98339 3.45841 -22.6546
ltibia 51.6732
lfoot 8.29982 3.56117
ltoes -11.4719
460
root 8.44835 16.5705 26.5067 7.07341 0.293001 1.10466
lowerback 0.0785098 0.402464 0.609565
upperback -1.54947 0.570192 1.92452
thorax -1.64502 0.291325 1.62221
lowerneck -11.3158 -0.709277 -2.23669
upperneck 18.7824 -0.258511 -1.38369
head 7.65539 -0.409423 -0.107241
rclavicle -4.17448e-015 1.74931e-014
rhumerus -49.5912 -38.1586 -55.3451
rradius 14.5411
rwrist 34.8956
rhand -15.2044 -34.4636
rfingers 7.12502
rthumb 10.9676 -64.1571
lclavicle -4.17448e-015 1.74931e-014
lhumerus -19.2616 -3.23798 90.2626
lradius 30.6219
lwrist 16.1593
lhand -23.9506 -15.8477
lfingers 7.12502
lthumb 2.52508 14.1171
rfemur -34.5412 3.51152 23.5592
rtibia 40.6174
rfoot -12.4899 7.18368
rtoes 0.698409
lfemur -3.77394 3.93444 -22.5109
ltibia 54.1503
lfoot 6.85521 4.19017
ltoes -8.71773
